<svg xmlns="http://www.w3.org/2000/svg" width="1200" height="800" viewBox="0 0 1200 800" role="img" aria-labelledby="title desc">
  <title id="title">Colecao Atemporal</title>
  <desc id="desc">Ilustracao abstrata de moda em tons neutros</desc>
  <defs>
    <linearGradient id="bg" x1="0" y1="0" x2="1" y2="1">
      <stop offset="0%" stop-color="#f9f3ea"/>
      <stop offset="100%" stop-color="#eadcc8"/>
    </linearGradient>
  </defs>
  <rect width="1200" height="800" fill="url(#bg)"/>
  <circle cx="250" cy="180" r="130" fill="#d6bfa2" opacity="0.55"/>
  <circle cx="940" cy="620" r="170" fill="#b59a75" opacity="0.35"/>
  <path d="M530 160C690 190 760 320 760 430C760 620 640 720 510 720C375 720 285 610 285 455C285 320 360 130 530 160Z" fill="#1f1a17" opacity="0.85"/>
  <path d="M545 250C610 250 640 290 640 350C640 415 605 510 545 590C485 510 450 415 450 350C450 290 480 250 545 250Z" fill="#f8f3ec" opacity="0.9"/>
</svg>
